<svg width="100" height="100" viewBox="0 0 100 100" fill="none" xmlns="http://www.w3.org/2000/svg">
<path d="M31.9693 17.0388L69.7572 38.4976C69.9374 38.5999 70.0455 38.7714 70.0455 38.955V82.5046C70.0455 82.8089 69.7538 83.0555 69.3939 83.0555H64.1818C63.822 83.0555 63.5303 82.8089 63.5303 82.5046V42.1748L37.4697 27.3762V82.5046C37.4697 82.8089 37.178 83.0556 36.8182 83.0556H31.6061C31.2462 83.0556 30.9545 82.8089 30.9545 82.5046V17.4962C30.9545 17.0553 31.5365 16.793 31.9693 17.0388Z" fill="#E0A94F"/>
<path d="M72 82.5049C71.9998 84.1672 70.5232 85 69.3939 85H64.1818C63.0525 85 61.5759 84.1672 61.5758 82.5049V43.3032L39.4242 30.7251V82.5049C39.4241 84.1672 37.9475 85 36.8182 85H31.6061C30.4767 85 29.0002 84.1672 29 82.5049V17.4963C29 16.3292 29.7794 15.5608 30.4926 15.2391C31.1647 14.9362 32.0146 14.8943 32.7857 15.2695L32.9384 15.3505L70.7262 36.8091C71.4241 37.2054 71.9999 37.9743 72 38.9548V82.5049Z" fill="#E0A94F"/>
</svg>
