<svg width="98" height="98" viewBox="0 0 98 98" fill="none" xmlns="http://www.w3.org/2000/svg">
<path d="M49 0C76.062 0 98 21.938 98 49C98 76.062 76.062 98 49 98C21.938 98 0 76.062 0 49C0 21.938 21.938 0 49 0ZM48.5 21C42.7728 21 37.9038 22.6515 34.2803 26.2686C30.6096 29.9327 29 35.0633 29 41.1572V70L40.7754 76V41.1572C40.7754 37.6977 41.5924 35.5879 42.7432 34.3242L42.7451 34.3213C43.794 33.1669 45.5252 32.3525 48.5 32.3525C51.4523 32.3525 53.2235 33.1568 54.3281 34.3291C55.4351 35.5964 56.2246 37.7104 56.2246 41.1572V70L68 76V41.1572C68 35.0633 66.3904 29.9327 62.7197 26.2686C59.0962 22.6515 54.2272 21 48.5 21Z" fill="#E0A94F"/>
</svg>
