<svg width="98" height="98" viewBox="0 0 98 98" fill="none" xmlns="http://www.w3.org/2000/svg">
<circle cx="49" cy="49" r="49" fill="#090909"/>
<path d="M34.7788 23.0729L63.7787 39.6268C63.917 39.7057 64 39.838 64 39.9796V73.575C64 73.8097 63.7761 74 63.5 74H59.5C59.2239 74 59 73.8097 59 73.575V42.4635L39 31.0475V73.575C39 73.8097 38.7761 74 38.5 74H34.5C34.2239 74 34 73.8097 34 73.575V23.4257C34 23.0856 34.4466 22.8833 34.7788 23.0729Z" fill="#E0A94F"/>
<path d="M65.5 73.5752C65.4999 74.8575 64.3667 75.5 63.5 75.5H59.5C58.6333 75.5 57.5001 74.8575 57.5 73.5752V43.334L40.5 33.6309V73.5752C40.4999 74.8575 39.3667 75.5 38.5 75.5H34.5C33.6333 75.5 32.5001 74.8575 32.5 73.5752V23.4258C32.5 22.5254 33.0981 21.9327 33.6455 21.6846C34.1613 21.4509 34.8135 21.4185 35.4053 21.708L35.5225 21.7705L64.5225 38.3242C65.058 38.63 65.5 39.2231 65.5 39.9795V73.5752Z" fill="#E0A94F"/>
</svg>
